<svg xmlns="http://www.w3.org/2000/svg" width="46.553" height="46.201" viewBox="0 0 46.553307 46.200966"><path d="M40.44 45.966L29.507 35.03c-2.997 1.962-6.58 3.112-10.444 3.112C8.522 38.142 0 29.6 0 19.062 0 8.54 8.522 0 19.062 0c10.52 0 19.06 8.542 19.06 19.06 0 3.68-1.036 7.108-2.828 10.012l11.013 11.01c.583.568.094 1.982-1.076 3.15l-1.64 1.643c-1.17 1.167-2.583 1.656-3.15 1.09zM31.79 19.06c0-7.032-5.695-12.726-12.727-12.726S6.317 12.028 6.317 19.06c0 7.034 5.712 12.746 12.745 12.746 7.033 0 12.728-5.71 12.728-12.745z"/></svg>